<svg width="32" height="32" viewBox="0 0 32 32" fill="none" xmlns="http://www.w3.org/2000/svg">
<g clip-path="url(#clip0_623_938)">
<rect y="16" width="16" height="16" fill="#FD5959"/>
<rect width="16" height="16" fill="#234C63"/>
<rect x="16" width="16" height="16" fill="#3FC5F0"/>
<rect x="16" y="16" width="16" height="16" fill="#94DD4D"/>
<path d="M21.416 10.064L19.528 11.424C19.784 11.9573 20.1413 12.448 20.6 12.896C21.0587 13.344 21.5973 13.7013 22.216 13.968C22.8453 14.224 23.5227 14.352 24.248 14.352C24.7707 14.352 25.2773 14.272 25.768 14.112C26.2693 13.9627 26.712 13.7387 27.096 13.44C27.4907 13.1413 27.8 12.7733 28.024 12.336C28.2587 11.888 28.376 11.3813 28.376 10.816C28.376 10.3467 28.3013 9.93067 28.152 9.568C28.0027 9.20533 27.7947 8.88533 27.528 8.608C27.272 8.33067 26.9733 8.096 26.632 7.904C26.2907 7.70133 25.9227 7.52533 25.528 7.376C25.0053 7.19467 24.5573 7.024 24.184 6.864C23.8213 6.704 23.5387 6.528 23.336 6.336C23.144 6.144 23.048 5.92 23.048 5.664C23.048 5.41867 23.1493 5.216 23.352 5.056C23.5547 4.88533 23.848 4.8 24.232 4.8C24.52 4.8 24.7867 4.85867 25.032 4.976C25.288 5.08267 25.5173 5.23733 25.72 5.44C25.9333 5.632 26.12 5.86133 26.28 6.128L28.344 4.976C28.152 4.592 27.8747 4.21333 27.512 3.84C27.1493 3.46667 26.6907 3.15733 26.136 2.912C25.592 2.66667 24.9467 2.544 24.2 2.544C23.4747 2.544 22.8133 2.672 22.216 2.928C21.6293 3.17333 21.16 3.536 20.808 4.016C20.4667 4.496 20.296 5.06667 20.296 5.728C20.296 6.28267 20.3973 6.75733 20.6 7.152C20.8027 7.536 21.0587 7.86667 21.368 8.144C21.6773 8.41067 22.0027 8.62933 22.344 8.8C22.696 8.97067 23.0053 9.104 23.272 9.2C23.816 9.40267 24.2533 9.584 24.584 9.744C24.9147 9.904 25.1547 10.0747 25.304 10.256C25.4533 10.4267 25.528 10.656 25.528 10.944C25.528 11.2853 25.4 11.5573 25.144 11.76C24.888 11.952 24.5627 12.048 24.168 12.048C23.7947 12.048 23.4373 11.968 23.096 11.808C22.7653 11.648 22.456 11.4187 22.168 11.12C21.8907 10.8213 21.64 10.4693 21.416 10.064Z" fill="white"/>
<path d="M23.9892 25.488L21.2532 18.8H18.1012L23.9892 30.704L29.8932 18.8H26.7252L23.9892 25.488Z" fill="white"/>
<path d="M3.57963 21.216H6.65163V30H9.35563V21.216H12.4436V18.8H3.57963V21.216Z" fill="white"/>
<path d="M6.6215 2.8V14H9.3735V2.8H6.6215Z" fill="white"/>
</g>
<defs>
<clipPath id="clip0_623_938">
<rect width="32" height="32" fill="white"/>
</clipPath>
</defs>
</svg>
