<svg width="73" height="24" viewBox="0 0 73 24" fill="none" xmlns="http://www.w3.org/2000/svg">
<g clip-path="url(#clip0_633_978)">
<rect x="38" width="16" height="16" fill="#FD5959"/>
<rect width="16" height="16" fill="#234C63"/>
<rect x="19" width="16" height="16" fill="#3FC5F0"/>
<rect x="57" width="16" height="16" fill="#94DD4D"/>
<path d="M24.416 10.064L22.528 11.424C22.784 11.9573 23.1413 12.448 23.6 12.896C24.0587 13.344 24.5973 13.7013 25.216 13.968C25.8453 14.224 26.5227 14.352 27.248 14.352C27.7707 14.352 28.2773 14.272 28.768 14.112C29.2693 13.9627 29.712 13.7387 30.096 13.44C30.4907 13.1413 30.8 12.7733 31.024 12.336C31.2587 11.888 31.376 11.3813 31.376 10.816C31.376 10.3467 31.3013 9.93067 31.152 9.568C31.0027 9.20533 30.7947 8.88533 30.528 8.608C30.272 8.33067 29.9733 8.096 29.632 7.904C29.2907 7.70133 28.9227 7.52533 28.528 7.376C28.0053 7.19467 27.5573 7.024 27.184 6.864C26.8213 6.704 26.5387 6.528 26.336 6.336C26.144 6.144 26.048 5.92 26.048 5.664C26.048 5.41867 26.1493 5.216 26.352 5.056C26.5547 4.88533 26.848 4.8 27.232 4.8C27.52 4.8 27.7867 4.85867 28.032 4.976C28.288 5.08267 28.5173 5.23733 28.72 5.44C28.9333 5.632 29.12 5.86133 29.28 6.128L31.344 4.976C31.152 4.592 30.8747 4.21333 30.512 3.84C30.1493 3.46667 29.6907 3.15733 29.136 2.912C28.592 2.66667 27.9467 2.544 27.2 2.544C26.4747 2.544 25.8133 2.672 25.216 2.928C24.6293 3.17333 24.16 3.536 23.808 4.016C23.4667 4.496 23.296 5.06667 23.296 5.728C23.296 6.28267 23.3973 6.75733 23.6 7.152C23.8027 7.536 24.0587 7.86667 24.368 8.144C24.6773 8.41067 25.0027 8.62933 25.344 8.8C25.696 8.97067 26.0053 9.104 26.272 9.2C26.816 9.40267 27.2533 9.584 27.584 9.744C27.9147 9.904 28.1547 10.0747 28.304 10.256C28.4533 10.4267 28.528 10.656 28.528 10.944C28.528 11.2853 28.4 11.5573 28.144 11.76C27.888 11.952 27.5627 12.048 27.168 12.048C26.7947 12.048 26.4373 11.968 26.096 11.808C25.7653 11.648 25.456 11.4187 25.168 11.12C24.8907 10.8213 24.64 10.4693 24.416 10.064Z" fill="white"/>
<path d="M64.9892 9.488L62.2532 2.8H59.1012L64.9892 14.704L70.8932 2.8H67.7252L64.9892 9.488Z" fill="white"/>
<path d="M41.5796 5.216H44.6516V14H47.3556V5.216H50.4436V2.8H41.5796V5.216Z" fill="white"/>
<path d="M6.6215 2.8V14H9.3735V2.8H6.6215Z" fill="white"/>
<path d="M0.922296 17.8V22H1.6363V17.8H0.922296ZM6.54064 17.8V20.62L3.47464 17.59V22H4.17064V19.18L7.23664 22.21V17.8H6.54064ZM9.506 18.436H11.384V17.8H9.506V18.436ZM9.506 20.104H11.324V19.486H9.506V20.104ZM9.068 17.8V22H9.764V17.8H9.068ZM13.6069 19.9C13.6069 19.612 13.6669 19.356 13.7869 19.132C13.9109 18.904 14.0809 18.726 14.2969 18.598C14.5129 18.47 14.7589 18.406 15.0349 18.406C15.3189 18.406 15.5669 18.47 15.7789 18.598C15.9949 18.726 16.1629 18.904 16.2829 19.132C16.4029 19.356 16.4629 19.612 16.4629 19.9C16.4629 20.188 16.4009 20.446 16.2769 20.674C16.1569 20.898 15.9889 21.074 15.7729 21.202C15.5609 21.33 15.3149 21.394 15.0349 21.394C14.7589 21.394 14.5129 21.33 14.2969 21.202C14.0809 21.074 13.9109 20.898 13.7869 20.674C13.6669 20.446 13.6069 20.188 13.6069 19.9ZM12.8569 19.9C12.8569 20.212 12.9109 20.502 13.0189 20.77C13.1269 21.038 13.2769 21.27 13.4689 21.466C13.6649 21.662 13.8969 21.816 14.1649 21.928C14.4329 22.036 14.7229 22.09 15.0349 22.09C15.3509 22.09 15.6409 22.036 15.9049 21.928C16.1729 21.816 16.4049 21.662 16.6009 21.466C16.7969 21.27 16.9489 21.038 17.0569 20.77C17.1649 20.502 17.2189 20.212 17.2189 19.9C17.2189 19.584 17.1649 19.294 17.0569 19.03C16.9489 18.766 16.7949 18.538 16.5949 18.346C16.3989 18.15 16.1689 17.998 15.9049 17.89C15.6409 17.782 15.3509 17.728 15.0349 17.728C14.7269 17.728 14.4389 17.782 14.1709 17.89C13.9069 17.998 13.6749 18.15 13.4749 18.346C13.2789 18.538 13.1269 18.766 13.0189 19.03C12.9109 19.294 12.8569 19.584 12.8569 19.9ZM19.6715 19.996L21.0095 22H21.8615L20.4395 19.996H19.6715ZM18.8075 17.8V22H19.5155V17.8H18.8075ZM19.2275 18.412H20.0735C20.2335 18.412 20.3735 18.44 20.4935 18.496C20.6175 18.552 20.7135 18.632 20.7815 18.736C20.8495 18.84 20.8835 18.968 20.8835 19.12C20.8835 19.268 20.8495 19.396 20.7815 19.504C20.7135 19.608 20.6175 19.688 20.4935 19.744C20.3735 19.8 20.2335 19.828 20.0735 19.828H19.2275V20.41H20.1035C20.4075 20.41 20.6715 20.356 20.8955 20.248C21.1235 20.14 21.2995 19.988 21.4235 19.792C21.5475 19.596 21.6095 19.366 21.6095 19.102C21.6095 18.838 21.5475 18.61 21.4235 18.418C21.2995 18.222 21.1235 18.07 20.8955 17.962C20.6715 17.854 20.4075 17.8 20.1035 17.8H19.2275V18.412ZM24.0558 19.444L25.3338 21.61L26.6118 19.444L26.9058 22H27.6378L27.0618 17.59L25.3338 20.44L23.6118 17.59L23.0358 22H23.7678L24.0558 19.444ZM32.2014 20.65L31.6734 21.016C31.7654 21.208 31.8894 21.386 32.0454 21.55C32.2014 21.714 32.3834 21.846 32.5914 21.946C32.8034 22.042 33.0334 22.09 33.2814 22.09C33.4614 22.09 33.6334 22.06 33.7974 22C33.9654 21.944 34.1154 21.864 34.2474 21.76C34.3794 21.652 34.4834 21.52 34.5594 21.364C34.6354 21.208 34.6734 21.032 34.6734 20.836C34.6734 20.652 34.6414 20.492 34.5774 20.356C34.5174 20.22 34.4354 20.102 34.3314 20.002C34.2274 19.898 34.1114 19.812 33.9834 19.744C33.8594 19.676 33.7354 19.62 33.6114 19.576C33.3874 19.496 33.2054 19.418 33.0654 19.342C32.9254 19.266 32.8214 19.186 32.7534 19.102C32.6894 19.014 32.6574 18.916 32.6574 18.808C32.6574 18.688 32.7034 18.584 32.7954 18.496C32.8874 18.404 33.0314 18.358 33.2274 18.358C33.3674 18.358 33.4894 18.386 33.5934 18.442C33.7014 18.494 33.7954 18.566 33.8754 18.658C33.9554 18.746 34.0214 18.842 34.0734 18.946L34.6494 18.622C34.5774 18.474 34.4774 18.332 34.3494 18.196C34.2254 18.06 34.0714 17.948 33.8874 17.86C33.7034 17.772 33.4874 17.728 33.2394 17.728C32.9874 17.728 32.7614 17.776 32.5614 17.872C32.3654 17.964 32.2094 18.096 32.0934 18.268C31.9774 18.436 31.9194 18.632 31.9194 18.856C31.9194 19.052 31.9574 19.22 32.0334 19.36C32.1094 19.496 32.2054 19.612 32.3214 19.708C32.4374 19.8 32.5594 19.878 32.6874 19.942C32.8154 20.002 32.9314 20.05 33.0354 20.086C33.2114 20.15 33.3654 20.216 33.4974 20.284C33.6334 20.348 33.7394 20.428 33.8154 20.524C33.8914 20.616 33.9294 20.74 33.9294 20.896C33.9294 21.06 33.8694 21.194 33.7494 21.298C33.6294 21.402 33.4734 21.454 33.2814 21.454C33.1214 21.454 32.9774 21.422 32.8494 21.358C32.7214 21.29 32.6034 21.196 32.4954 21.076C32.3914 20.952 32.2934 20.81 32.2014 20.65ZM36.738 22H38.856V21.376H36.738V22ZM36.738 18.424H38.856V17.8H36.738V18.424ZM36.738 20.056H38.736V19.444H36.738V20.056ZM36.3 17.8V22H36.996V17.8H36.3ZM41.4918 19.996L42.8298 22H43.6818L42.2598 19.996H41.4918ZM40.6278 17.8V22H41.3358V17.8H40.6278ZM41.0478 18.412H41.8938C42.0538 18.412 42.1938 18.44 42.3138 18.496C42.4378 18.552 42.5338 18.632 42.6018 18.736C42.6698 18.84 42.7038 18.968 42.7038 19.12C42.7038 19.268 42.6698 19.396 42.6018 19.504C42.5338 19.608 42.4378 19.688 42.3138 19.744C42.1938 19.8 42.0538 19.828 41.8938 19.828H41.0478V20.41H41.9238C42.2278 20.41 42.4918 20.356 42.7158 20.248C42.9438 20.14 43.1198 19.988 43.2438 19.792C43.3678 19.596 43.4298 19.366 43.4298 19.102C43.4298 18.838 43.3678 18.61 43.2438 18.418C43.1198 18.222 42.9438 18.07 42.7158 17.962C42.4918 17.854 42.2278 17.8 41.9238 17.8H41.0478V18.412ZM46.6981 20.752L45.4621 17.8H44.6461L46.6981 22.234L48.7501 17.8H47.9341L46.6981 20.752ZM50.1387 17.8V22H50.8527V17.8H50.1387ZM53.213 19.9C53.213 19.6 53.279 19.34 53.411 19.12C53.547 18.896 53.723 18.724 53.939 18.604C54.159 18.48 54.397 18.418 54.653 18.418C54.853 18.418 55.033 18.444 55.193 18.496C55.353 18.548 55.497 18.62 55.625 18.712C55.757 18.8 55.871 18.9 55.967 19.012V18.172C55.791 18.028 55.601 17.918 55.397 17.842C55.193 17.766 54.937 17.728 54.629 17.728C54.321 17.728 54.033 17.78 53.765 17.884C53.501 17.988 53.271 18.138 53.075 18.334C52.879 18.53 52.725 18.762 52.613 19.03C52.505 19.294 52.451 19.584 52.451 19.9C52.451 20.216 52.505 20.508 52.613 20.776C52.725 21.04 52.879 21.27 53.075 21.466C53.271 21.662 53.501 21.812 53.765 21.916C54.033 22.02 54.321 22.072 54.629 22.072C54.937 22.072 55.193 22.034 55.397 21.958C55.601 21.882 55.791 21.772 55.967 21.628V20.788C55.871 20.9 55.757 21.002 55.625 21.094C55.497 21.182 55.353 21.252 55.193 21.304C55.033 21.356 54.853 21.382 54.653 21.382C54.397 21.382 54.159 21.322 53.939 21.202C53.723 21.078 53.547 20.904 53.411 20.68C53.279 20.456 53.213 20.196 53.213 19.9ZM58.1775 22H60.2955V21.376H58.1775V22ZM58.1775 18.424H60.2955V17.8H58.1775V18.424ZM58.1775 20.056H60.1755V19.444H58.1775V20.056ZM57.7395 17.8V22H58.4355V17.8H57.7395ZM64.346 18.454H65.45V22H66.1641V18.454H67.2741V17.8H64.346V18.454ZM70.4731 20.752L69.2371 17.8H68.4211L70.4731 22.234L72.5251 17.8H71.7091L70.4731 20.752Z" fill="#234C63"/>
</g>
<defs>
<clipPath id="clip0_633_978">
<rect width="73" height="24" fill="white"/>
</clipPath>
</defs>
</svg>
